<?xml version="1.0" standalone="no"?>
<!DOCTYPE svg PUBLIC "-//W3C//DTD SVG 20010904//EN"
 "http://www.w3.org/TR/2001/REC-SVG-20010904/DTD/svg10.dtd">
<svg version="1.0" xmlns="http://www.w3.org/2000/svg"
 width="700.000000pt" height="700.000000pt" viewBox="0 0 700.000000 700.000000"
 preserveAspectRatio="xMidYMid meet">
<metadata>
Created by potrace 1.14, written by Peter Selinger 2001-2017
</metadata>
<g transform="translate(0.000000,700.000000) scale(0.100000,-0.100000)"
fill="#000000" stroke="none">
<path d="M3368 6785 c-2 -1 -53 -5 -115 -9 -61 -4 -119 -8 -130 -10 -20 -4
-84 -13 -158 -22 -27 -3 -53 -8 -56 -10 -4 -2 -24 -6 -45 -10 -131 -19 -357
-85 -554 -161 -505 -195 -989 -540 -1320 -943 -30 -36 -56 -67 -60 -70 -15
-14 -132 -177 -192 -269 -291 -446 -476 -993 -515 -1531 -13 -178 -7 -487 12
-635 19 -138 39 -253 61 -345 13 -58 27 -114 29 -126 3 -12 23 -79 46 -150
191 -601 574 -1158 1071 -1557 460 -368 1036 -617 1608 -692 25 -3 52 -8 60
-10 37 -9 210 -18 370 -19 158 0 386 10 400 19 3 1 34 6 70 10 63 7 76 9 130
20 14 2 41 7 60 10 19 3 71 15 115 26 44 11 89 22 100 25 11 2 72 20 135 41
63 20 117 37 120 38 3 1 14 5 25 10 11 4 54 21 95 37 105 41 267 119 374 180
83 47 236 141 261 160 6 5 50 38 100 75 77 57 192 150 231 187 310 293 520
560 694 881 172 318 304 704 356 1045 3 25 8 52 9 60 27 146 39 560 21 725 -3
33 -8 85 -11 115 -3 30 -7 62 -10 70 -2 8 -6 38 -10 65 -3 28 -13 84 -21 125
-99 487 -301 939 -594 1328 -119 158 -141 183 -265 312 -535 554 -1241 903
-1993 985 -26 3 -69 8 -97 11 -51 6 -401 14 -407 9z"/>
</g>
</svg>
